<svg xmlns="http://www.w3.org/2000/svg" height="600" width="600"><path d="M257.004 507.549c-41.454-7.443-57.794-16.556-95.569-53.299-25.923-25.215-39.15-44.431-50.064-72.73-20.525-53.224-20.312-109.9.579-153.951 13.173-27.779 55.961-59.258 93.616-68.874 8.753-2.235 14.39-5.095 14.39-7.3 0-6.417-23.656-15.997-41.191-16.682-15.326-.6-21.517-3.887-14.956-7.942 2.886-1.783 24.7 1.53 44.89 6.817 5.32 1.394 13.264 6.125 17.653 10.513 8.318 8.318 17.151 9.308 17.151 1.922 0-6.616-27.53-40.247-39.115-47.784-7.914-5.148-9.082-6.724-4.985-6.724 7.214 0 32.54 16.805 52.892 35.096 12.273 11.03 17.768 14.406 20.932 12.865 2.36-1.15 20.773-2.229 40.92-2.398l36.63-.308 24.327-24.333c30.32-30.326 35.639-28.602 12.265 3.976-9.275 12.928-16.888 24.309-16.917 25.29-.029.981 10.715 7.457 23.875 14.39 14.487 7.633 30.944 19.1 41.714 29.067 15.78 14.603 20.209 17.165 39.228 22.694 20.283 5.897 31.564 12.358 27.927 15.995-.9.9-4.33-.249-7.622-2.554-5.061-3.546-28.367-6.185-28.367-3.213 0 .538 2.948 6.253 6.55 12.7 14.739 26.37 20.053 63.53 14.542 101.693-11.709 81.091-61.97 143.976-134.906 168.786-17.37 5.908-26.273 7.242-52.328 7.84-17.269.397-37.096-.302-44.061-1.552z" fill="#c89192"/><path d="M247.323 502.441c-12.29-2.593-27.595-7.365-34.013-10.604-27.086-13.67-66.498-52.003-84.919-82.594-11.357-18.86-23.44-55.603-27.206-82.727-4.515-32.526 3.091-79.44 16.685-102.908 7.64-13.19 30.235-34.696 46.383-44.146 13.321-7.797 64.638-25.599 67.928-23.565 2.556 1.579 17.864-6.23 17.864-9.114 0-1.187-5.927-9.988-13.17-19.556-7.244-9.568-12.17-17.397-10.947-17.397 1.223 0 10.87 7.788 21.437 17.305l19.214 17.305 12.01-2.196c6.605-1.207 26.139-2.225 43.407-2.26l31.397-.065 15.442-16.352c8.494-8.994 16.466-16.353 17.716-16.353s-2.995 7.854-9.434 17.452c-6.44 9.6-11.09 18.454-10.334 19.677.757 1.224 9.998 6.317 20.538 11.318 21.626 10.262 48.76 29.702 56.983 40.824 3.021 4.086 9.518 8.758 14.439 10.381 6.333 2.09 8.13 3.767 6.156 5.742-1.974 1.974-.587 6.668 4.748 16.07 15.547 27.399 18.99 53.945 13.099 101-5.54 44.245-27.632 95.154-52.06 119.964-18.176 18.46-33.38 29.139-58.415 41.028-35.776 16.99-80.328 21.187-124.948 11.771zm144.262-147.218c5.635-10.986 6.523-25.64 1.839-30.324-5.181-5.18-23.899-3.843-30.352 2.17-8.556 7.97-14.009 20.194-13.103 29.374.66 6.696 2.296 8.569 8.982 10.289 4.496 1.156 9.676 3.912 11.512 6.124 2.961 3.568 4.062 3.348 9.741-1.951 3.522-3.286 8.643-10.343 11.381-15.682zm-212.184-41.72c0-5.598-13.303-20.524-18.293-20.524-8.174 0-8.554 4.687-1.164 14.375 6.852 8.984 19.457 12.968 19.457 6.15zm45.325-92.748c1.046-6.448 4.537-12.034 11.037-17.66l9.506-8.231-7.075-14.07-7.075-14.07-16.047 1.333c-22.028 1.829-42.9 11.79-60.576 28.91-11.104 10.756-14.564 15.84-13.907 20.432 1.46 10.212 10.905 12.706 48.282 12.748l34.325.038 1.53-9.43zm110.283-63.718c1.517-2.454-11.391-10.577-16.808-10.577-4.948 0-2.884 3.936 4.449 8.482 8.373 5.191 10.25 5.51 12.359 2.095z" fill="#975e4f"/><path d="M250.34 501.014c-9.191-2.075-22.189-5.592-28.884-7.816-26.272-8.726-76.558-57.697-93.325-90.883-34.015-67.328-31.544-154.348 5.55-195.406 11.345-12.559 14.334-12.567 6.703-.019-8.58 14.107-2.256 29.285 16.869 40.493 21.002 12.309 103.919 37.641 136.657 41.752 17.59 2.209 38.968-2.683 42.77-9.787 2.422-4.526.91-7.009-11.174-18.349-7.687-7.213-19.274-15.466-25.75-18.34-6.475-2.875-15.672-8.917-20.437-13.429-8.245-7.807-9.665-8.196-29.434-8.077-24.38.148-25.763-1.986-10.017-15.464l10.755-9.206-5.522-7.755c-3.037-4.264-5.522-8.572-5.522-9.571 0-1-1.865-5.747-4.144-10.55-2.911-6.135-5.44-8.32-8.503-7.344-3.62 1.153-3.714.932-.56-1.301 2.09-1.48 4.704-2.132 5.81-1.448 3.19 1.97 17.863-6.59 17.863-10.423 0-1.907-6.04-11.444-13.42-21.195-7.382-9.75-12.025-17.262-10.32-16.693 3.903 1.3 38.27 30.518 57.268 48.685 7.9 7.555 15.428 13.736 16.729 13.736 1.3 0 4.73-5.347 7.621-11.882l5.256-11.882 9.065 5.603 9.065 5.602 11.042-10.205c6.073-5.613 17.991-17.504 26.484-26.425 8.494-8.922 16.485-16.221 17.759-16.221 1.273 0-2.405 6.95-8.174 15.446-12.189 17.949-24.046 48.971-27.097 70.896-.46 3.308 5.318 4.014 36.785 4.495 37.288.57 37.328.565 34.367-4.968-1.631-3.047-8.236-10.663-14.678-16.924-6.443-6.261-10.659-11.384-9.37-11.384 4.703 0 27.273 15.917 38.522 27.165 6.348 6.349 16.025 13.022 21.502 14.83 8.483 2.8 9.308 3.699 5.562 6.062-4 2.522-3.672 4.045 3.597 16.75 6.667 11.653 15.145 35.603 15.264 43.12.067 4.228-4.943 1.666-6.532-3.34-1.875-5.906-13.605-14.648-16.189-12.064-.911.911 1.48 7.858 5.315 15.436 8.282 16.37 8.804 28.92 3.026 72.74-4.792 36.332-12.306 64.716-21.111 79.74-16.255 27.737-56.352 57.942-93.99 70.804-17.545 5.995-26.223 7.283-53.637 7.96-21.779.539-38.288-.451-49.416-2.964zm134.218-108.813c3.726-4.428 7.405-11.198 8.176-15.044.77-3.847 3.125-12.984 5.232-20.306 5.823-20.236 5.001-30.59-3.067-38.66-3.794-3.793-9.794-6.897-13.333-6.897-14.404 0-30.126 16.204-35.23 36.309-4.864 19.166 11.27 52.649 25.372 52.649 3.572 0 8.866-3.317 12.85-8.05zM184.11 326.47c1.727-1.727 3.14-7.769 3.14-13.427 0-17.665-15.133-35.761-29.905-35.761-15.693 0-13.868 22.788 3.315 41.402 10.191 11.038 17.703 13.533 23.45 7.786zm202.223-61.616c21.348-11.074 26.175-16.4 21.562-23.786-2.669-4.274-2.288-4.695 3.29-3.628 6.925 1.323 8.87-3.82 2.384-6.308-6.403-2.457-4.557-5.136 6.541-9.496 5.756-2.26 10.466-5.273 10.466-6.694 0-4.074-47.876-6.854-54.743-3.178-6.757 3.616-6.268 11.074.794 12.107 2.707.396 6.239 2.152 7.85 3.903 2.234 2.428 1.843 2.8-1.65 1.571-5.322-1.872-5.392-1.636-2.077 7.082l2.502 6.581-12.172-7.719c-14.609-9.265-17.9-9.567-19.936-1.832-1.448 5.5.131 30.625 2.384 37.938 1.793 5.819 13.464 3.492 32.805-6.541zm-141.522-93.537c-1.85-2.228-3.951-3.462-4.67-2.743-.72.72.204 3.131 2.053 5.36 1.85 2.228 3.951 3.462 4.67 2.742.72-.72-.204-3.13-2.053-5.359zm12.855-9.58c-2.067-3.863-3.677-4.874-4.384-2.753-1.148 3.446 4.45 12.058 6.504 10.004.63-.631-.323-3.894-2.12-7.251z" fill="#6f2d2a"/><path d="M370.4 234.998c-11.315-7.556-12.49-7.783-30.09-5.812-20.78 2.327-42.56 2.482-44.724.318-.8-.8-1.777-3.624-2.171-6.274-.515-3.466-2.55-4.597-7.248-4.03-10.186 1.229-46.588-30.276-46.588-40.32 0-1.325-2.414-6.912-5.364-12.417-2.95-5.505-4.12-9.239-2.598-8.299 1.521.94 4.53 5.122 6.687 9.292 3.777 7.304 26.261 22.917 29.024 20.154 2.534-2.534-20.734-47.663-32.533-63.097-6.477-8.473-10.34-14.927-8.583-14.341 3.98 1.326 38.167 30.361 57.36 48.716 7.9 7.555 15.429 13.736 16.73 13.736 1.3 0 4.73-5.347 7.621-11.882l5.256-11.882 9.065 5.603 9.065 5.602 11.042-10.205c6.073-5.613 17.991-17.504 26.484-26.425 8.494-8.922 16.485-16.221 17.759-16.221 1.273 0-2.405 6.95-8.174 15.446-10.905 16.06-16.51 29.062-22.1 51.272-1.81 7.196-4.7 15.687-6.42 18.87l-3.126 5.787 42.556-.018c35.835-.016 45.356.847 60.291 5.46 31.766 9.813 16.59 13.047-34.999 7.46-15.25-1.653-30.902-2.208-34.78-1.235-8.778 2.203-11.35 8.251-6.017 14.144 3.378 3.734 10.843 19.321 8.938 18.663-.324-.112-5.888-3.741-12.364-8.066z" fill="#353329"/></svg>
